# AST/ASF file generated using VICON BodyLanguage
# -----------------------------------------------
:version 1.10
:name VICON
:units
  mass 1.0
  length 0.45
  angle deg
:documentation
   .ast/.asf automatically generated from VICON data using
   VICON BodyBuilder and BodyLanguage model FoxedUp or BRILLIANT.MOD
:root
   order TX TY TZ RX RY RZ
   axis XYZ
   position 0 0 0  
   orientation 0 0 0 
:bonedata
  begin
     id 1 
     name lhipjoint
     direction 0.645893 -0.654526 0.392961 
     length 2.38111 
     axis 0 0 0  XYZ
  end
  begin
     id 2 
     name lfemur
     direction 0.34202 -0.939693 0  
     length 6.6822  
     axis 0 0 20  XYZ
    dof rx ry rz
    limits (-160.0 20.0)
           (-70.0 70.0)
           (-60.0 70.0)
  end
  begin
     id 3 
     name ltibia
     direction 0.34202 -0.939693 0   
     length 6.93904   
     axis 0 0 20   XYZ
    dof rx
    limits (-10.0 170.0)
  end
  begin
     id 4 
     name lfoot
     direction 0.0694967 -0.190941 0.979138   
     length 2.13616   
     axis -90 7.62852e-016 20   XYZ
    dof rx rz
    limits (-45.0 90.0)
           (-70.0 20.0)
  end
  begin
     id 5 
     name ltoes
     direction 1.535e-011 -4.2202e-011 1   
     length 1.07536   
     axis -90 7.62852e-016 20   XYZ
    dof rx
    limits (-90.0 20.0)
  end
  begin
     id 6 
     name rhipjoint
     direction -0.700219 -0.612087 0.367481   
     length 2.54621  
     axis 0 0 0  XYZ 
  end
  begin
     id 7 
     name rfemur
     direction -0.34202 -0.939693 0   
     length 6.55353   
     axis 0 0 -20   XYZ
    dof rx ry rz
    limits (-160.0 20.0)
           (-70.0 70.0)
           (-70.0 60.0)
  end
  begin
     id 8 
     name rtibia
     direction -0.34202 -0.939693 0   
     length 6.8736   
     axis 0 0 -20   XYZ
    dof rx
    limits (-10.0 170.0)
 end
 begin
     id 9 
     name rfoot
     direction -0.0679995 -0.186827 0.980037   
     length 2.1218  
     axis -90 -7.62852e-016 -20   XYZ
    dof rx rz
    limits (-45.0 90.0)
           (-20.0 70.0)
  end
  begin
     id 10 
     name rtoes
     direction -1.53589e-011 -4.21772e-011 1   
     length 1.06864   
     axis -90 -7.62852e-016 -20   XYZ
    dof rx
    limits (-90.0 20.0)
  end
  begin
     id 11 
     name lowerback
     direction -0.0416607 0.996347 -0.0745409   
     length 2.12205   
     axis 0 0 0   XYZ
    dof rx ry rz
    limits (-20.0 45.0)
           (-30.0 30.0)
           (-30.0 30.0)
  end
  begin
     id 12 
     name upperback
     direction -0.000153993 0.999276 -0.0380568   
     length 2.12759   
     axis 0 0 0   XYZ
    dof rx ry rz
    limits (-20.0 45.0)
           (-30.0 30.0)
           (-30.0 30.0)
  end
  begin
     id 13 
     name thorax
     direction 0.0187671 0.999821 -0.00241421   
     length 2.13704   
     axis 0 0 0   XYZ
    dof rx ry rz
    limits (-20.0 45.0)
           (-30.0 30.0)
           (-30.0 30.0)
  end
  begin
     id 14 
     name lowerneck
     direction 0.0268157 0.964865 0.261374   
     length 1.65253   
     axis 0 0 0   XYZ
    dof rx ry rz
    limits (-20.0 45.0)
           (-30.0 30.0)
           (-30.0 30.0)
  end
  begin
     id 15 
     name upperneck
     direction 0.00263774 0.939908 -0.341418   
     length 1.72375   
     axis 0 0 0   XYZ
    dof rx ry rz
    limits (-20.0 45.0)
           (-30.0 30.0)
           (-30.0 30.0)
  end
  begin
     id 16
     name head
     direction -0.00526001 0.989001 -0.147818  
     length 1.74878  
     axis 0 0 0   XYZ
    dof rx ry rz
    limits (-20.0 45.0)
           (-30.0 30.0)
           (-30.0 30.0)
  end
  begin
     id 17 
     name lclavicle
     direction 0.881214 0.461162 -0.103884  
     length 3.25108  
     axis 0 0 0   XYZ
    dof ry rz
    limits (-20.0 10.0)
           (0.0 20.0)
  end
  begin
     id 18 
     name lhumerus
     direction 1 -4.4899e-011 3.38092e-027   
     length 4.87408   
     axis 180 -30 -90   XYZ
    dof rx ry rz
    limits (-60.0 90.0)
           (-90.0 90.0)
           (-90.0 90.0)
  end
  begin
     id 19
     name lradius
     direction 1 -4.48931e-011 9.96288e-027   
     length 2.76729   
     axis 180 -30 -90   XYZ
    dof rx
    limits (-10.0 170.0)
  end
  begin
     id 20
     name lwrist
     direction 1 -4.4896e-011 1.50617e-026   
     length 1.38364   
     axis -9.31234e-015 90 90   XYZ
    dof ry
    limits (-180.0 0.0)
 end
  begin
     id 21 
     name lhand
     direction 1 -4.49038e-011 3.01286e-026   
     length 0.98922   
     axis -1.92217e-014 90 90   XYZ
    dof rx rz
    limits (-90.0 90.0)
           (-45.0 45.0)
  end
  begin
     id 22 
     name lfingers
     direction 1 -4.49051e-011 6.02588e-026   
     length 0.797535   
     axis -3.84436e-014 90 90   XYZ
    dof rx
    limits (0.0 90.0)
  end
  begin
     id 23
     name lthumb
     direction 0.707107 -6.34901e-011 0.707107   
     length 1.14511   
     axis -90 45 2.19363e-014   XYZ
    dof rx rz
    limits (-45.0 45.0)
           (-45.0 45.0)
  end
  begin
     id 24 
     name rclavicle
     direction -0.893894 0.441652 -0.0767889   
     length 3.29361  
     axis 0 0 0   XYZ 
    dof ry rz
    limits (-10.0 20.0)
           (-20.0 0.0)
  end
  begin
     id 25 
     name rhumerus
     direction -1 -4.48945e-011 8.0491e-028  
     length 4.71404   
     axis 180 30 90   XYZ
    dof rx ry rz
    limits (-90.0 60.0)
           (-90.0 90.0)
           (-90.0 90.0)
  end
  begin
     id 26 
     name rradius
     direction -1 -4.48986e-011 9.27795e-027   
     length 2.83468   
     axis 180 30 90   XYZ
    dof rx
    limits (-10.0 170.0)
  end
  begin
     id 27 
     name rwrist
     direction -1 -4.49029e-011 1.5064e-026   
     length 1.41734   
     axis -9.31234e-015 -90 -90   XYZ
    dof ry
    limits (-180.0 0.0)
  end
  begin
     id 28
     name rhand
     direction -1 -4.48857e-011 3.01165e-026   
     length 0.868195   
     axis -1.92217e-014 -90 -90   XYZ
    dof rx rz
    limits (-90.0 90.0)
           (-45.0 45.0)
  end
  begin
     id 29
     name rfingers
     direction -1 -4.49048e-011 6.02585e-026   
     length 0.699961   
     axis -3.84436e-014 -90 -90   XYZ
    dof rx
    limits (0.0 90.0)
  end
  begin
     id 30
     name rthumb
     direction -0.707107 -6.34854e-011 0.707107   
     length 1.00501   
     axis -90 -45 -2.19363e-014   XYZ
    dof rx rz
    limits (-45.0 45.0)
           (-45.0 45.0)
  end
:hierarchy
  begin
    root lhipjoint rhipjoint lowerback
    lhipjoint lfemur
    lfemur ltibia
    ltibia lfoot
    lfoot ltoes
    rhipjoint rfemur
    rfemur rtibia
    rtibia rfoot
    rfoot rtoes
    lowerback upperback
    upperback thorax
    thorax lowerneck lclavicle rclavicle
    lowerneck upperneck
    upperneck head
    lclavicle lhumerus
    lhumerus lradius
    lradius lwrist
    lwrist lhand lthumb
    lhand lfingers
    rclavicle rhumerus
    rhumerus rradius
    rradius rwrist
    rwrist rhand rthumb
    rhand rfingers
  end

#!OML:ASF H:\ManfredObstacles\Project 1\Capture day 2\Session 1\male.ASF
:FULLY-SPECIFIED
:DEGREES
77
root -0.308605 15.8162 27.8625 -171.772 1.15175 178.256
lowerback -6.93179 0.298589 -5.05684
upperback -0.427153 0.855111 -0.260353
thorax 3.37996 0.373256 2.65552
lowerneck -36.5008 0.783435 2.06183
upperneck 39.1058 -2.43253 0.705609
head 22.4187 -0.993167 -0.909622
rclavicle -2.2736e-015 7.05686e-015
rhumerus -40.1959 -26.7526 -71.813
rradius 23.39
rwrist 38.2996
rhand -1.01202 -7.6766
rfingers 7.12502
rthumb 24.6207 -36.1131
lclavicle -2.2736e-015 7.05686e-015
lhumerus -29.5235 15.8765 81.3657
lradius 19.768
lwrist -50.1749
lhand 2.67051 5.99927
lfingers 7.12502
lthumb 28.1457 33.9067
rfemur -13.7926 4.73819 21.9435
rtibia 28.3453
rfoot -11.825 -21.0063
rtoes -14.6533
lfemur -15.834 -6.66882 -24.3073
ltibia 28.5064
lfoot -4.42186 22.9843
ltoes -1.13417
78
root -0.307099 15.8158 27.8598 -171.777 1.13045 178.243
lowerback -6.91653 0.137407 -5.1434
upperback -0.429569 0.637052 -0.0936241
thorax 3.38407 0.261043 2.8563
lowerneck -36.5412 0.90377 1.87632
upperneck 39.1305 -2.08852 0.664412
head 22.4512 -0.907894 -0.802199
rclavicle 4.18069e-015 7.55382e-015
rhumerus -39.9549 -26.2063 -71.8606
rradius 23.329
rwrist 38.2735
rhand -0.995388 -7.65941
rfingers 7.12502
rthumb 24.6366 -36.0937
lclavicle 4.18069e-015 7.55382e-015
lhumerus -29.7016 16.5897 81.3067
lradius 19.7635
lwrist -50.3577
lhand 2.64298 5.9682
lfingers 7.12502
lthumb 28.1193 33.88
rfemur -13.7739 4.74285 21.9401
rtibia 28.3525
rfoot -11.8418 -21.0365
rtoes -14.4461
lfemur -15.8144 -6.65676 -24.3164
ltibia 28.4976
lfoot -4.43875 22.9613
ltoes -1.1579
79
root -0.305162 15.8152 27.8569 -171.793 1.09489 178.228
lowerback -6.88877 -0.0306933 -5.23545
upperback -0.418691 0.409349 0.0775526
thorax 3.39773 0.143251 3.06395
lowerneck -36.6108 1.03017 1.69363
upperneck 39.1463 -1.73108 0.622213
head 22.4847 -0.816294 -0.691146
rclavicle -3.5129e-015 7.40473e-015
rhumerus -39.679 -25.6551 -71.9201
rradius 23.2617
rwrist 38.2382
rhand -0.977598 -7.6528
rfingers 7.12502
rthumb 24.6537 -36.0848
lclavicle -3.5129e-015 7.40473e-015
lhumerus -29.8613 17.3042 81.2579
lradius 19.7659
lwrist -50.5284
lhand 2.63026 5.95061
lfingers 7.12502
lthumb 28.1072 33.8644
rfemur -13.7367 4.7544 21.9418
rtibia 28.3566
rfoot -11.8609 -21.0861
rtoes -14.2251
lfemur -15.7836 -6.64597 -24.3238
ltibia 28.493
lfoot -4.46969 22.9286
ltoes -1.18237
80
root -0.302681 15.8144 27.8538 -171.82 1.04649 178.214
lowerback -6.84687 -0.124275 -5.29604
upperback -0.417903 0.282284 0.162298
thorax 3.38599 0.0782222 3.1737
lowerneck -36.6169 -0.505082 2.80452
upperneck 39.1661 -0.715769 -0.352092
head 22.47 0.742079 -0.634806
rclavicle 2.31398e-016 3.52843e-015
rhumerus -39.5572 -25.3685 -71.9492
rradius 23.2271
rwrist 38.2024
rhand -0.95883 -7.66055
rfingers 7.12502
rthumb 24.6717 -36.0901
lclavicle 2.31398e-016 3.52843e-015
lhumerus -29.9798 17.6677 81.2094
lradius 19.7649
lwrist -50.6238
lhand 2.64646 5.95129
lfingers 7.12502
lthumb 28.1227 33.8625
rfemur -13.6797 4.77771 21.9501
rtibia 28.3572
rfoot -11.8863 -21.1564
rtoes -13.9801
lfemur -15.7409 -6.63483 -24.3282
ltibia 28.4925
lfoot -4.51035 22.8873
ltoes -1.2034
81
root -0.299953 15.8134 27.8507 -171.85 0.989761 178.202
lowerback -6.79697 -0.0612044 -5.28498
upperback -0.442907 0.367197 0.0689845
thorax 3.32475 0.124339 3.07806
lowerneck -36.5166 1.05121 1.73241
upperneck 39.1143 -1.71943 0.619725
head 22.435 -0.808087 -0.695058
rclavicle 2.09966e-015 6.11263e-015
rhumerus -39.7562 -25.6319 -71.9107
rradius 23.2593
rwrist 38.2003
rhand -0.943666 -7.67329
rfingers 7.12502
rthumb 24.6862 -36.1008
lclavicle 2.09966e-015 6.11263e-015
lhumerus -30.0115 17.3291 81.1598
lradius 19.7513
lwrist -50.5792
lhand 2.69857 5.97365
lfingers 7.12502
lthumb 28.1725 33.8767
rfemur -13.6148 4.80682 21.9626
rtibia 28.3544
rfoot -11.9106 -21.2393
rtoes -13.7355
lfemur -15.6963 -6.62628 -24.3295
ltibia 28.4953
lfoot -4.55556 22.8436
ltoes -1.21527
82
root -0.297321 15.8126 27.8478 -171.878 0.937759 178.194
lowerback -6.74191 0.0792953 -5.23148
upperback -0.476627 0.556212 -0.108298
thorax 3.24373 0.224846 2.88084
lowerneck -36.389 0.945948 1.94155
upperneck 39.0846 -2.06093 0.66444
head 22.3754 -0.891166 -0.804243
rclavicle -4.61553e-015 -5.06901e-015
rhumerus -40.0912 -26.1542 -71.8455
rradius 23.3231
rwrist 38.2124
rhand -0.926482 -7.69158
rfingers 7.12502
rthumb 24.7027 -36.1169
lclavicle -4.61553e-015 -5.06901e-015
lhumerus -29.9857 16.6831 81.1053
lradius 19.7219
lwrist -50.5046
lhand 2.76218 5.99694
lfingers 7.12502
lthumb 28.2333 33.89
rfemur -13.5535 4.83542 21.979
rtibia 28.3487
rfoot -11.9302 -21.3157
rtoes -13.5123
lfemur -15.6565 -6.61832 -24.3258
ltibia 28.5004
lfoot -4.59495 22.8054
ltoes -1.22071
83
root -0.295633 15.8123 27.8456 -171.883 0.913336 178.194
lowerback -6.69857 0.273263 -5.12971
upperback -0.521318 0.816831 -0.339427
thorax 3.15493 0.36304 2.60702
lowerneck -36.2565 0.80426 2.19697
upperneck 39.0662 -2.50633 0.726302
head 22.3211 -1.00257 -0.942003
rclavicle -1.04362e-015 -3.57812e-015
rhumerus -40.5027 -26.8244 -71.7675
rradius 23.4085
rwrist 38.2333
rhand -0.909099 -7.70906
rfingers 7.12502
rthumb 24.7193 -36.1321
lclavicle -1.04362e-015 -3.57812e-015
lhumerus -29.9192 15.8521 81.0512
lradius 19.6843
lwrist -50.3998
lhand 2.82684 6.0251
lfingers 7.12502
lthumb 28.2951 33.9079
rfemur -13.5286 4.84913 21.9921
rtibia 28.3413
rfoot -11.9404 -21.3494
rtoes -13.3401
lfemur -15.646 -6.61479 -24.3174
ltibia 28.5061
lfoot -4.61291 22.7911
ltoes -1.22408
84
root -0.294881 15.8126 27.844 -171.866 0.91405 178.201
lowerback -6.66193 0.563722 -4.95369
upperback -0.60327 1.20782 -0.678999
thorax 3.02831 0.570988 2.19044
lowerneck -36.0537 0.599842 2.56874
upperneck 39.0429 -3.14795 0.808973
head 22.2395 -1.166 -1.14393
rclavicle 2.29845e-015 -7.15625e-015
rhumerus -41.1322 -27.7807 -71.6341
rradius 23.5406
rwrist 38.2677
rhand -0.900729 -7.71273
rfingers 7.12502
rthumb 24.7274 -36.1346
lclavicle 2.29845e-015 -7.15625e-015
lhumerus -29.8305 14.603 80.9937
lradius 19.6461
lwrist -50.1893
lhand 2.89468 6.05748
lfingers 7.12502
lthumb 28.3599 33.9295
rfemur -13.538 4.84277 22.0005
rtibia 28.3332
rfoot -11.9417 -21.3394
rtoes -13.2268
lfemur -15.6615 -6.61499 -24.3066
ltibia 28.5114
lfoot -4.6176 22.7942
ltoes -1.22869
85
root -0.295113 15.8133 27.843 -171.825 0.940525 178.209
lowerback -6.6571 0.604637 -4.90161
upperback -0.662805 1.26087 -0.724411
thorax 2.96218 0.602247 2.1183
lowerneck -35.9761 0.588337 2.6191
upperneck 39.0623 -3.21447 0.813671
head 22.2307 -1.18539 -1.17009
rclavicle 4.05024e-015 2.38542e-015
rhumerus -41.27 -27.8246 -71.6168
rradius 23.5736
rwrist 38.2427
rhand -0.897085 -7.71272
rfingers 7.12502
rthumb 24.7308 -36.1341
lclavicle 4.05024e-015 2.38542e-015
lhumerus -29.9159 14.5036 80.9329
lradius 19.6313
lwrist -50.2179
lhand 2.90947 6.06972
lfingers 7.12502
lthumb 28.374 33.9394
rfemur -13.5868 4.81221 21.9989
rtibia 28.3261
rfoot -11.9273 -21.284
rtoes -13.1773
lfemur -15.7058 -6.6172 -24.2981
ltibia 28.5145
lfoot -4.60492 22.8169
ltoes -1.22569
86
root -0.29498 15.8139 27.8418 -171.791 0.955365 178.214
lowerback -6.65997 0.622882 -4.87107
upperback -0.706215 1.28437 -0.743973
thorax 2.91826 0.617075 2.08264
lowerneck -35.9043 0.588353 2.64686
upperneck 39.0701 -3.23668 0.80756
head 22.2156 -1.19347 -1.18496
rclavicle -4.87022e-015 -1.43125e-014
rhumerus -41.3552 -27.8058 -71.6108
rradius 23.6001
rwrist 38.2209
rhand -0.904037 -7.70274
rfingers 7.12502
rthumb 24.7242 -36.1251
lclavicle -4.87022e-015 -1.43125e-014
lhumerus -29.9946 14.4924 80.8843
lradius 19.618
lwrist -50.2579
lhand 2.90864 6.07407
lfingers 7.12502
lthumb 28.3733 33.9439
rfemur -13.6234 4.78688 21.9981
rtibia 28.3205
rfoot -11.9184 -21.2436
rtoes -13.0994
lfemur -15.7391 -6.62014 -24.2915
ltibia 28.5156
lfoot -4.60178 22.8281
ltoes -1.22873
87
root -0.294664 15.8145 27.8406 -171.761 0.964279 178.214
lowerback -6.67111 0.695085 -4.82145
upperback -0.703547 1.3822 -0.823008
thorax 2.92349 0.66741 1.98195
lowerneck -35.9272 0.543207 2.73838
upperneck 39.059 -3.37476 0.818415
head 22.211 -1.22463 -1.23338
rclavicle 4.99446e-015 6.95746e-015
rhumerus -41.4306 -28.0317 -71.6103
rradius 23.6326
rwrist 38.2357
rhand -0.924473 -7.68675
rfingers 7.12502
rthumb 24.7046 -36.1118
lclavicle 4.99446e-015 6.95746e-015
lhumerus -29.9167 14.2608 80.8773
lradius 19.5889
lwrist -50.2305
lhand 2.91202 6.0854
lfingers 7.12502
lthumb 28.3765 33.9547
rfemur -13.6563 4.76279 21.9947
rtibia 28.3172
rfoot -11.9052 -21.2116
rtoes -13.0224
lfemur -15.7683 -6.62298 -24.2885
ltibia 28.5145
lfoot -4.60324 22.8323
ltoes -1.23254
88
root -0.293934 15.8148 27.8392 -171.739 0.962692 178.213
lowerback -6.68795 0.713042 -4.81274
upperback -0.674708 1.40727 -0.836908
thorax 2.96163 0.678404 1.96556
lowerneck -35.983 0.539127 2.77526
upperneck 39.031 -3.38891 0.807331
head 22.2049 -1.22133 -1.24805
rclavicle -1.61513e-014 -1.41137e-014
rhumerus -41.3728 -28.0955 -71.6379
rradius 23.6389
rwrist 38.2443
rhand -0.946266 -7.67084
rfingers 7.12502
rthumb 24.6837 -36.0987
lclavicle -1.61513e-014 -1.41137e-014
lhumerus -29.8367 14.2696 80.8845
lradius 19.5593
lwrist -50.2488
lhand 2.90314 6.08904
lfingers 7.12502
lthumb 28.368 33.9597
rfemur -13.6767 4.7479 21.9941
rtibia 28.3158
rfoot -11.895 -21.1991
rtoes -12.9049
lfemur -15.7868 -6.62427 -24.2853
ltibia 28.512
lfoot -4.60496 22.8288
ltoes -1.23546
89
root -0.292985 15.8151 27.838 -171.721 0.9543 178.209
lowerback -6.69922 0.791032 -4.77516
upperback -0.678915 1.51449 -0.924019
thorax 2.95966 0.733918 1.86412
lowerneck -35.9468 0.493766 2.91042
upperneck 38.9883 -3.5388 0.796542
head 22.1591 -1.25455 -1.31728
rclavicle 2.6339e-015 -9.54166e-015
rhumerus -41.5038 -28.3564 -71.6097
rradius 23.6782
rwrist 38.2562
rhand -0.968898 -7.65668
rfingers 7.12502
rthumb 24.662 -36.0875
lclavicle 2.6339e-015 -9.54166e-015
lhumerus -29.7754 13.9669 80.8887
lradius 19.5373
lwrist -50.1721
lhand 2.90413 6.10054
lfingers 7.12502
lthumb 28.3689 33.9711
rfemur -13.6913 4.7377 21.9925
rtibia 28.316
rfoot -11.8881 -21.1973
rtoes -12.82
lfemur -15.8007 -6.62358 -24.2843
ltibia 28.5082
lfoot -4.6063 22.8197
ltoes -1.23899
90
root -0.291862 15.8153 27.8369 -171.709 0.942111 178.204
lowerback -6.71221 0.822871 -4.77099
upperback -0.670215 1.55942 -0.955013
thorax 2.97399 0.75632 1.8341
lowerneck -35.9431 0.487816 3.00031
upperneck 38.9459 -3.58 0.765086
head 22.1238 -1.25786 -1.35883
rclavicle 1.39149e-014 1.03368e-014
rhumerus -41.534 -28.4686 -71.5998
rradius 23.6929
rwrist 38.2635
rhand -0.986233 -7.6468
rfingers 7.12502
rthumb 24.6454 -36.0799
lclavicle 1.39149e-014 1.03368e-014
lhumerus -29.7316 13.8685 80.9003
lradius 19.5174
lwrist -50.1315
lhand 2.89709 6.1039
lfingers 7.12502
lthumb 28.3622 33.9755
rfemur -13.6996 4.73257 21.9916
rtibia 28.3168
rfoot -11.8829 -21.2031
rtoes -12.7168
lfemur -15.8098 -6.62069 -24.2837
ltibia 28.5043
lfoot -4.60556 22.8069
ltoes -1.24106
91
root -0.290998 15.8157 27.8361 -171.691 0.936305 178.2
lowerback -6.7364 0.79378 -4.80087
upperback -0.650004 1.52186 -0.911859
thorax 3.00895 0.735137 1.89288
lowerneck -35.9636 0.53082 3.01532
upperneck 38.9128 -3.48117 0.714575
head 22.1047 -1.22515 -1.35851
rclavicle 2.01269e-015 5.1684e-015
rhumerus -41.4267 -28.3632 -71.6253
rradius 23.6796
rwrist 38.2522
rhand -0.998536 -7.64913
rfingers 7.12502
rthumb 24.6336 -36.0838
lclavicle 2.01269e-015 5.1684e-015
lhumerus -29.7244 14.0409 80.9198
lradius 19.5093
lwrist -50.1378
lhand 2.88329 6.10589
lfingers 7.12502
lthumb 28.349 33.9797
rfemur -13.717 4.72666 21.9885
rtibia 28.3174
rfoot -11.8777 -21.2015
rtoes -12.621
lfemur -15.8264 -6.61948 -24.2833
ltibia 28.5005
lfoot -4.59665 22.8032
ltoes -1.24315
